<mxfile host="app.diagrams.net" modified="2021-06-10T09:11:01.707Z" agent="5.0 (Windows NT 10.0; Win64; x64) AppleWebKit/537.36 (KHTML, like Gecko) Chrome/91.0.4472.77 Safari/537.36" etag="CA1w-WBnRdf6CcOElgv_" version="14.6.13" type="github">
  <diagram id="9k8CUjLqLtZa7dqB0PQQ" name="Page-1">
    <mxGraphModel dx="1662" dy="796" grid="1" gridSize="10" guides="1" tooltips="1" connect="0" arrows="0" fold="1" page="1" pageScale="1" pageWidth="827" pageHeight="1169" math="0" shadow="0">
      <root>
        <mxCell id="0" />
        <mxCell id="1" parent="0" />
        <mxCell id="KfzqfCUhaY5RTyHcNgsX-5" value="&lt;p style=&quot;margin: 0px ; margin-top: 4px ; text-align: center&quot;&gt;&lt;span style=&quot;font-weight: 700&quot;&gt;SMBConnection&lt;br&gt;&lt;/span&gt;&lt;b&gt;impacket.&lt;/b&gt;&lt;span style=&quot;font-weight: 700&quot;&gt;smbconnection.py&lt;/span&gt;&lt;br&gt;&lt;/p&gt;&lt;hr size=&quot;1&quot;&gt;&lt;p style=&quot;margin: 0px ; margin-left: 4px&quot;&gt;+ _SMBConnection: smb.SMB或smb3.SMB3&lt;/p&gt;&lt;hr size=&quot;1&quot;&gt;&lt;p style=&quot;margin: 0px ; margin-left: 4px&quot;&gt;+ negotiateSession()&lt;/p&gt;&lt;p style=&quot;margin: 0px ; margin-left: 4px&quot;&gt;+&amp;nbsp;login() : 调用_SMBConnection的login函数&lt;/p&gt;&lt;p style=&quot;margin: 0px ; margin-left: 4px&quot;&gt;+ putFile(): 调用SMB3的store_file&lt;/p&gt;" style="verticalAlign=top;align=left;overflow=fill;fontSize=12;fontFamily=Helvetica;html=1;" parent="1" vertex="1">
          <mxGeometry x="1010" y="730" width="280" height="130" as="geometry" />
        </mxCell>
        <mxCell id="KfzqfCUhaY5RTyHcNgsX-6" value="&lt;b style=&quot;text-align: center&quot;&gt;&amp;nbsp; &amp;nbsp; &amp;nbsp; &amp;nbsp; &amp;nbsp; &amp;nbsp; &amp;nbsp; &amp;nbsp; &amp;nbsp; &amp;nbsp; &amp;nbsp; &amp;nbsp; &amp;nbsp;impacket.&lt;/b&gt;&lt;b style=&quot;text-align: center&quot;&gt;dcerpc.v5.transport.py&lt;/b&gt;&lt;b style=&quot;text-align: center&quot;&gt;&lt;br&gt;&lt;/b&gt;&lt;p style=&quot;margin: 0px ; margin-top: 4px ; text-align: center&quot;&gt;&lt;b&gt;Transport implementations for the DCE/RPC protocol&lt;/b&gt;&lt;br&gt;&lt;/p&gt;&lt;hr size=&quot;1&quot;&gt;&lt;p style=&quot;margin: 0px ; margin-left: 4px&quot;&gt;+ class DCERPCStringBinding&lt;/p&gt;&lt;p style=&quot;margin: 0px ; margin-left: 4px&quot;&gt;+ class DCERPCTransport&lt;/p&gt;&lt;p style=&quot;margin: 0px ; margin-left: 4px&quot;&gt;+ class UDPTransport(DCERPCTransport)&lt;/p&gt;&lt;p style=&quot;margin: 0px ; margin-left: 4px&quot;&gt;+ class TCPTransport(DCERPCTransport)&lt;/p&gt;&lt;p style=&quot;margin: 0px ; margin-left: 4px&quot;&gt;+ class HTTPTransport(TCPTransport, RPCProxyClient)&lt;/p&gt;&lt;p style=&quot;margin: 0px ; margin-left: 4px&quot;&gt;+ class SMBTransport(DCERPCTransport)&lt;/p&gt;&lt;p style=&quot;margin: 0px ; margin-left: 4px&quot;&gt;+ class LOCALTransport(DCERPCTransport)&lt;/p&gt;&lt;hr size=&quot;1&quot;&gt;&lt;p style=&quot;margin: 0px ; margin-left: 4px&quot;&gt;+&amp;nbsp;&lt;span&gt;DCERPCStringBindingCompose&lt;/span&gt;&lt;/p&gt;&lt;p style=&quot;margin: 0px ; margin-left: 4px&quot;&gt;+ DCERPCTransportFactory: 根据参数返回相应的DCERPCTransport对象&lt;/p&gt;" style="verticalAlign=top;align=left;overflow=fill;fontSize=12;fontFamily=Helvetica;html=1;" parent="1" vertex="1">
          <mxGeometry x="490" y="440" width="410" height="190" as="geometry" />
        </mxCell>
        <mxCell id="KfzqfCUhaY5RTyHcNgsX-11" value="&lt;p style=&quot;margin: 0px ; margin-top: 4px ; text-align: center&quot;&gt;&lt;span style=&quot;text-align: left&quot;&gt;DCERPCTransport&lt;br&gt;&lt;/span&gt;&lt;b&gt;impacket.&lt;/b&gt;&lt;b&gt;dcerpc.v5.transport.py&lt;/b&gt;&lt;br&gt;&lt;/p&gt;&lt;hr size=&quot;1&quot;&gt;&lt;p style=&quot;margin: 0px ; margin-left: 4px&quot;&gt;+ _stringbinding:&amp;nbsp;DCERPCStringBinding&lt;/p&gt;&lt;p style=&quot;margin: 0px ; margin-left: 4px&quot;&gt;+&amp;nbsp;__smb_connection: SMBConnection&lt;/p&gt;&lt;hr size=&quot;1&quot;&gt;&lt;p style=&quot;margin: 0px ; margin-left: 4px&quot;&gt;+ connect(): 创建__smb_connection&lt;/p&gt;&lt;p style=&quot;margin: 0px ; margin-left: 4px&quot;&gt;&lt;br&gt;&lt;/p&gt;&lt;p style=&quot;margin: 0px ; margin-left: 4px&quot;&gt;+ get_dce_rpc(): 以self为参数，创建DCERPC_v5对象。&lt;/p&gt;&lt;p style=&quot;margin: 0px ; margin-left: 4px&quot;&gt;先调用此函数生成DCERPC对象，再调用DCERPC对象的connect函数&lt;/p&gt;" style="verticalAlign=top;align=left;overflow=fill;fontSize=12;fontFamily=Helvetica;html=1;" parent="1" vertex="1">
          <mxGeometry x="520" y="715" width="380" height="170" as="geometry" />
        </mxCell>
        <mxCell id="KfzqfCUhaY5RTyHcNgsX-12" value="&lt;p style=&quot;margin: 0px ; margin-top: 4px ; text-align: center&quot;&gt;&lt;b&gt;DCERPC&lt;br&gt;&lt;/b&gt;&lt;b&gt;impacket.dcerpc.v5.rpcrt.py&lt;/b&gt;&lt;/p&gt;&lt;p style=&quot;margin: 0px ; margin-top: 4px ; text-align: center&quot;&gt;[MS-RPCE] implementation&lt;br&gt;&lt;/p&gt;&lt;hr size=&quot;1&quot;&gt;&lt;p style=&quot;margin: 0px ; margin-left: 4px&quot;&gt;+ _transport: DCERPCTransport&lt;/p&gt;&lt;hr size=&quot;1&quot;&gt;&lt;p style=&quot;margin: 0px ; margin-left: 4px&quot;&gt;+ connect():&amp;nbsp;调用 _transport.connect&lt;/p&gt;" style="verticalAlign=top;align=left;overflow=fill;fontSize=12;fontFamily=Helvetica;html=1;" parent="1" vertex="1">
          <mxGeometry x="60" y="730" width="340" height="140" as="geometry" />
        </mxCell>
        <mxCell id="KfzqfCUhaY5RTyHcNgsX-13" value="&lt;p style=&quot;margin: 0px ; margin-top: 4px ; text-align: center&quot;&gt;&lt;b&gt;DCERPC_v5&lt;/b&gt;&lt;br&gt;&lt;/p&gt;&lt;hr size=&quot;1&quot;&gt;&lt;p style=&quot;margin: 0px ; margin-left: 4px&quot;&gt;+ field: Type&lt;/p&gt;&lt;hr size=&quot;1&quot;&gt;&lt;p style=&quot;margin: 0px ; margin-left: 4px&quot;&gt;+ method(): Type&lt;/p&gt;" style="verticalAlign=top;align=left;overflow=fill;fontSize=12;fontFamily=Helvetica;html=1;" parent="1" vertex="1">
          <mxGeometry x="130" y="950" width="160" height="90" as="geometry" />
        </mxCell>
        <mxCell id="KfzqfCUhaY5RTyHcNgsX-14" value="Extends" style="endArrow=block;endSize=16;endFill=0;html=1;exitX=0.538;exitY=0.022;exitDx=0;exitDy=0;exitPerimeter=0;entryX=0.455;entryY=1.03;entryDx=0;entryDy=0;entryPerimeter=0;" parent="1" source="KfzqfCUhaY5RTyHcNgsX-13" target="KfzqfCUhaY5RTyHcNgsX-12" edge="1">
          <mxGeometry width="160" relative="1" as="geometry">
            <mxPoint x="420" y="810" as="sourcePoint" />
            <mxPoint x="190" y="920" as="targetPoint" />
          </mxGeometry>
        </mxCell>
        <mxCell id="KfzqfCUhaY5RTyHcNgsX-15" value="Use" style="endArrow=open;endSize=12;dashed=1;html=1;exitX=1.009;exitY=0.5;exitDx=0;exitDy=0;exitPerimeter=0;" parent="1" source="KfzqfCUhaY5RTyHcNgsX-12" target="KfzqfCUhaY5RTyHcNgsX-11" edge="1">
          <mxGeometry width="160" relative="1" as="geometry">
            <mxPoint x="540" y="910" as="sourcePoint" />
            <mxPoint x="700" y="910" as="targetPoint" />
          </mxGeometry>
        </mxCell>
        <mxCell id="KfzqfCUhaY5RTyHcNgsX-16" value="Use" style="endArrow=open;endSize=12;dashed=1;html=1;exitX=1.017;exitY=0.507;exitDx=0;exitDy=0;exitPerimeter=0;entryX=0.007;entryY=0.562;entryDx=0;entryDy=0;entryPerimeter=0;" parent="1" source="KfzqfCUhaY5RTyHcNgsX-11" target="KfzqfCUhaY5RTyHcNgsX-5" edge="1">
          <mxGeometry width="160" relative="1" as="geometry">
            <mxPoint x="540" y="710" as="sourcePoint" />
            <mxPoint x="908" y="795" as="targetPoint" />
          </mxGeometry>
        </mxCell>
        <mxCell id="KfzqfCUhaY5RTyHcNgsX-17" value="&lt;p style=&quot;margin: 0px ; margin-top: 4px ; text-align: center&quot;&gt;&lt;b&gt;SMB3&lt;/b&gt;&lt;br&gt;&lt;b&gt;impacket/smb3.py&lt;br&gt;&lt;/b&gt;提供smb底层操作&lt;/p&gt;&lt;hr size=&quot;1&quot;&gt;&lt;p style=&quot;margin: 0px ; margin-left: 4px&quot;&gt;+ field: Type&lt;/p&gt;&lt;hr size=&quot;1&quot;&gt;&lt;p style=&quot;margin: 0px ; margin-left: 4px&quot;&gt;+ login(): Type&lt;/p&gt;&lt;p style=&quot;margin: 0px ; margin-left: 4px&quot;&gt;+ store_file()&lt;/p&gt;" style="verticalAlign=top;align=left;overflow=fill;fontSize=12;fontFamily=Helvetica;html=1;" parent="1" vertex="1">
          <mxGeometry x="1360" y="745" width="200" height="155" as="geometry" />
        </mxCell>
        <mxCell id="KfzqfCUhaY5RTyHcNgsX-18" value="Use" style="endArrow=open;endSize=12;dashed=1;html=1;exitX=1.007;exitY=0.508;exitDx=0;exitDy=0;exitPerimeter=0;entryX=0.006;entryY=0.511;entryDx=0;entryDy=0;entryPerimeter=0;" parent="1" source="KfzqfCUhaY5RTyHcNgsX-5" target="KfzqfCUhaY5RTyHcNgsX-17" edge="1">
          <mxGeometry width="160" relative="1" as="geometry">
            <mxPoint x="1290" y="806.28" as="sourcePoint" />
            <mxPoint x="1406.92" y="800" as="targetPoint" />
          </mxGeometry>
        </mxCell>
        <mxCell id="KfzqfCUhaY5RTyHcNgsX-19" value="&lt;p style=&quot;margin: 0px ; margin-top: 4px ; text-align: center&quot;&gt;&lt;b&gt;RemComSvc&lt;br&gt;&lt;/b&gt;impacket/examples/remcomsvc.py&lt;br&gt;一个service exe，被psexec,&amp;nbsp;smbrelayx使用&lt;/p&gt;&lt;hr size=&quot;1&quot;&gt;&lt;p style=&quot;margin: 0px ; margin-left: 4px&quot;&gt;+ binary: Type&lt;/p&gt;&lt;hr size=&quot;1&quot;&gt;&lt;p style=&quot;margin: 0px ; margin-left: 4px&quot;&gt;+ method(): Type&lt;/p&gt;" style="verticalAlign=top;align=left;overflow=fill;fontSize=12;fontFamily=Helvetica;html=1;" parent="1" vertex="1">
          <mxGeometry x="1060" y="1100" width="250" height="110" as="geometry" />
        </mxCell>
        <mxCell id="KfzqfCUhaY5RTyHcNgsX-20" value="&lt;p style=&quot;margin: 0px ; margin-top: 4px ; text-align: center&quot;&gt;&lt;b&gt;ServiceInstall&lt;/b&gt;&lt;/p&gt;&lt;p style=&quot;margin: 0px ; margin-top: 4px ; text-align: center&quot;&gt;&lt;b&gt;impacket.examples.serviceinstall.py&lt;/b&gt;&lt;/p&gt;&lt;p style=&quot;margin: 0px ; margin-top: 4px ; text-align: center&quot;&gt;&lt;b&gt;基于一个已建立连接的connection和exe, 提供了远程服务相关操作&lt;/b&gt;&lt;/p&gt;&lt;hr size=&quot;1&quot;&gt;&lt;p style=&quot;margin: 0px ; margin-left: 4px&quot;&gt;+ connection: SMBConnection&lt;/p&gt;&lt;hr size=&quot;1&quot;&gt;&lt;p style=&quot;margin: 0px ; margin-left: 4px&quot;&gt;+&amp;nbsp;&lt;span&gt;createService()&lt;/span&gt;&lt;/p&gt;&lt;p style=&quot;margin: 0px ; margin-left: 4px&quot;&gt;+ openSvcManager()&lt;/p&gt;&lt;p style=&quot;margin: 0px ; margin-left: 4px&quot;&gt;+ copy_file()&lt;/p&gt;" style="verticalAlign=top;align=left;overflow=fill;fontSize=12;fontFamily=Helvetica;html=1;" parent="1" vertex="1">
          <mxGeometry x="520" y="1040" width="410" height="150" as="geometry" />
        </mxCell>
        <mxCell id="KfzqfCUhaY5RTyHcNgsX-25" value="&lt;p style=&quot;margin: 0px ; margin-top: 4px ; text-align: center&quot;&gt;&lt;b&gt;impacket/dcerpc/v5/srvs.py&lt;/b&gt;&lt;/p&gt;&lt;p style=&quot;margin: 0px ; margin-top: 4px ; text-align: center&quot;&gt;&lt;b&gt;[MS-SRVS] Interface implementation&lt;/b&gt;&lt;/p&gt;&lt;hr size=&quot;1&quot;&gt;&lt;p style=&quot;margin: 0px ; margin-left: 4px&quot;&gt;+ field: Type&lt;/p&gt;&lt;hr size=&quot;1&quot;&gt;&lt;p style=&quot;margin: 0px ; margin-left: 4px&quot;&gt;+ method(): Type&lt;/p&gt;" style="verticalAlign=top;align=left;overflow=fill;fontSize=12;fontFamily=Helvetica;html=1;" parent="1" vertex="1">
          <mxGeometry x="1060" y="980" width="280" height="90" as="geometry" />
        </mxCell>
        <mxCell id="KfzqfCUhaY5RTyHcNgsX-26" value="Use" style="endArrow=open;endSize=12;dashed=1;html=1;exitX=1.002;exitY=0.487;exitDx=0;exitDy=0;exitPerimeter=0;entryX=-0.007;entryY=0.546;entryDx=0;entryDy=0;entryPerimeter=0;" parent="1" source="KfzqfCUhaY5RTyHcNgsX-20" target="KfzqfCUhaY5RTyHcNgsX-5" edge="1">
          <mxGeometry width="160" relative="1" as="geometry">
            <mxPoint x="660" y="910" as="sourcePoint" />
            <mxPoint x="820" y="910" as="targetPoint" />
          </mxGeometry>
        </mxCell>
        <mxCell id="KfzqfCUhaY5RTyHcNgsX-27" value="Use" style="endArrow=open;endSize=12;dashed=1;html=1;entryX=0.007;entryY=0.567;entryDx=0;entryDy=0;entryPerimeter=0;exitX=1;exitY=0.553;exitDx=0;exitDy=0;exitPerimeter=0;" parent="1" source="KfzqfCUhaY5RTyHcNgsX-20" target="KfzqfCUhaY5RTyHcNgsX-25" edge="1">
          <mxGeometry width="160" relative="1" as="geometry">
            <mxPoint x="930" y="1110" as="sourcePoint" />
            <mxPoint x="820" y="910" as="targetPoint" />
          </mxGeometry>
        </mxCell>
        <mxCell id="KfzqfCUhaY5RTyHcNgsX-28" value="Use" style="endArrow=open;endSize=12;dashed=1;html=1;exitX=1.007;exitY=0.667;exitDx=0;exitDy=0;exitPerimeter=0;entryX=-0.012;entryY=0.427;entryDx=0;entryDy=0;entryPerimeter=0;" parent="1" source="KfzqfCUhaY5RTyHcNgsX-20" target="KfzqfCUhaY5RTyHcNgsX-19" edge="1">
          <mxGeometry width="160" relative="1" as="geometry">
            <mxPoint x="880" y="1270" as="sourcePoint" />
            <mxPoint x="1040" y="1270" as="targetPoint" />
          </mxGeometry>
        </mxCell>
      </root>
    </mxGraphModel>
  </diagram>
</mxfile>
